<?xml version="1.0" encoding="utf-8"?>
<!-- Generator: Adobe Illustrator 23.1.1, SVG Export Plug-In . SVG Version: 6.00 Build 0)  -->
<svg version="1.1" id="Layer_1" xmlns="http://www.w3.org/2000/svg" xmlns:xlink="http://www.w3.org/1999/xlink" x="0px" y="0px"
	 viewBox="0 0 200 200" enable-background="new 0 0 200 200" xml:space="preserve">
<g>
	<rect fill="#F4F4F4" width="200" height="200"/>
</g>
<polygon fill="#018CE1" points="41.6,63.9 101.2,49.9 147.7,61.2 111,75.3 158.4,65.3 158.4,130.1 103.2,150.1 45.8,135.2 
	97.3,88.6 103.5,138.5 104.5,75.3 51.8,66.3 92.9,81.8 41.6,126.7 "/>
<path fill="#018CE1" d="M100.1,35.7L28.2,52.4v91.6l75.2,20.4l68.3-25.1V52.7L100.1,35.7z M165.6,134.8l-62.5,22.7l-68.5-18.4v-82
	l65.6-14.7l65.5,14.9V134.8z"/>
<polygon fill="#FFFFFF" points="158.4,65.3 158.4,130.1 103.2,150.1 45.8,135.2 97.3,88.6 103.5,138.5 104.5,75.3 51.8,66.3 
	92.9,81.8 41.6,126.7 41.6,63.9 101.2,49.9 147.7,61.2 111,75.3 "/>
<polygon fill="#FF7200" points="158.4,65.3 158.4,130.1 103.2,150.1 45.8,135.2 97.3,88.6 103.5,138.5 104.5,75.3 51.8,66.3 
	92.9,81.8 41.6,126.7 41.6,63.9 101.2,49.9 147.7,61.2 111,75.3 "/>
</svg>
