<?xml version="1.0" encoding="utf-8"?>
<!-- Generator: Adobe Illustrator 23.0.6, SVG Export Plug-In . SVG Version: 6.00 Build 0)  -->
<svg version="1.1" id="Layer_1" xmlns="http://www.w3.org/2000/svg" xmlns:xlink="http://www.w3.org/1999/xlink" x="0px" y="0px"
	 viewBox="0 0 200 200" enable-background="new 0 0 200 200" xml:space="preserve">
<g>
	<g>
		<g id="Layer_1_10_">
			<g>
				<g>
					<polygon fill="#1A476F" points="35.2,121.8 50.3,139.5 50.3,22.5 35.2,40.2 					"/>
					<polygon fill="#205B98" points="50.3,139.5 79.2,154 79.2,8 50.3,22.5 					"/>
					<polygon fill="#2D72B8" points="164.8,40.2 149.7,22.5 149.7,139.5 164.8,121.8 					"/>
					<polygon fill="#5294CF" points="120.8,154 149.7,139.5 149.7,22.5 120.8,8 					"/>
					<rect x="79.2" y="8" fill="#2D72B8" width="41.5" height="146"/>
				</g>
			</g>
		</g>
		<g>
			<path fill="#FFFFFF" d="M55.6,86.6h8.6l1.7,5.1h5.2l-8.6-23h-5.2l-8.7,23h5.1L55.6,86.6z M59.9,74.4L59.9,74.4l3,8.4h-5.9
				L59.9,74.4z"/>
			<path fill="#FFFFFF" d="M75.7,91.7c0.8,0.3,1.8,0.5,3,0.5c1,0,1.9-0.2,2.8-0.6c0.9-0.4,1.7-1.1,2.2-2.1h0.1v2.3h4.3V75.1h-4.6
				v8.7c0,1.7-0.3,2.9-0.8,3.7c-0.6,0.7-1.5,1.1-2.7,1.1c-1.1,0-1.9-0.3-2.3-1c-0.4-0.7-0.6-1.7-0.6-3.1v-9.4h-4.6v10.2
				c0,1,0.1,2,0.3,2.8c0.2,0.8,0.5,1.6,0.9,2.2C74.3,90.9,74.9,91.3,75.7,91.7z"/>
			<path fill="#FFFFFF" d="M98.7,79.3c0.6-0.3,1.3-0.4,2.1-0.4c0.3,0,0.6,0,0.9,0c0.3,0,0.6,0.1,0.8,0.1v-4.2
				c-0.4-0.1-0.7-0.2-1-0.2c-0.6,0-1.1,0.1-1.7,0.3c-0.5,0.2-1,0.4-1.5,0.7c-0.5,0.3-0.9,0.7-1.3,1.1c-0.4,0.4-0.7,0.9-0.9,1.4h-0.1
				v-3.1h-4.3v16.6h4.6v-7.5c0-0.7,0.1-1.4,0.2-2.1c0.2-0.6,0.4-1.2,0.8-1.7C97.6,80,98.1,79.6,98.7,79.3z"/>
			<path fill="#FFFFFF" d="M119.7,79.8c-0.4-1.1-1-2-1.7-2.8c-0.8-0.8-1.7-1.3-2.7-1.8c-1.1-0.4-2.2-0.6-3.6-0.6
				c-1.3,0-2.5,0.2-3.5,0.6c-1.1,0.4-2,1-2.7,1.8c-0.8,0.8-1.3,1.7-1.7,2.8c-0.4,1.1-0.6,2.3-0.6,3.6s0.2,2.5,0.6,3.6
				c0.4,1.1,1,2,1.7,2.7c0.8,0.8,1.7,1.3,2.7,1.8c1,0.4,2.2,0.6,3.5,0.6c1.3,0,2.5-0.2,3.6-0.6c1.1-0.4,2-1,2.7-1.8
				c0.7-0.8,1.3-1.7,1.7-2.7c0.4-1.1,0.6-2.3,0.6-3.6S120.1,80.9,119.7,79.8z M115.6,85.4c-0.1,0.6-0.3,1.2-0.7,1.7
				c-0.3,0.5-0.7,0.9-1.3,1.2s-1.2,0.5-1.9,0.5c-0.8,0-1.4-0.2-1.9-0.5s-0.9-0.7-1.2-1.2c-0.3-0.5-0.5-1.1-0.7-1.7
				c-0.1-0.6-0.2-1.3-0.2-1.9c0-0.7,0.1-1.3,0.2-2c0.1-0.6,0.3-1.2,0.7-1.7c0.3-0.5,0.7-0.9,1.2-1.2c0.5-0.3,1.2-0.5,1.9-0.5
				c0.8,0,1.4,0.2,1.9,0.5c0.5,0.3,0.9,0.7,1.3,1.2c0.3,0.5,0.5,1.1,0.7,1.7c0.1,0.6,0.2,1.3,0.2,2
				C115.8,84.1,115.7,84.7,115.6,85.4z"/>
			<path fill="#FFFFFF" d="M127.9,84.2c0-0.7,0.1-1.4,0.2-2.1c0.2-0.6,0.4-1.2,0.8-1.7c0.4-0.5,0.8-0.9,1.4-1.1
				c0.6-0.3,1.3-0.4,2.1-0.4c0.3,0,0.6,0,0.9,0c0.3,0,0.6,0.1,0.8,0.1v-4.2c-0.4-0.1-0.7-0.2-1-0.2c-0.6,0-1.1,0.1-1.7,0.3
				c-0.5,0.2-1,0.4-1.5,0.7c-0.5,0.3-0.9,0.7-1.3,1.1c-0.4,0.4-0.7,0.9-0.9,1.4h-0.1v-3.1h-4.3v16.6h4.6V84.2z"/>
			<path fill="#FFFFFF" d="M140.7,92.1c1,0,2-0.2,3-0.5c1-0.3,1.8-0.8,2.6-1.6c0,0.3,0.1,0.6,0.1,0.8c0.1,0.3,0.1,0.5,0.2,0.8h4.6
				c-0.2-0.3-0.4-0.9-0.5-1.5c-0.1-0.7-0.1-1.4-0.1-2.2v-8.6c0-1-0.2-1.8-0.7-2.4c-0.4-0.6-1-1.1-1.7-1.4c-0.7-0.3-1.5-0.6-2.3-0.7
				s-1.7-0.2-2.5-0.2c-0.9,0-1.8,0.1-2.7,0.3c-0.9,0.2-1.7,0.5-2.5,0.9c-0.7,0.4-1.3,1-1.8,1.7c-0.5,0.7-0.7,1.6-0.8,2.7h4.6
				c0.1-0.9,0.4-1.5,0.9-1.9c0.5-0.4,1.2-0.6,2.1-0.6c0.4,0,0.8,0,1.1,0.1c0.4,0.1,0.7,0.2,0.9,0.3c0.3,0.2,0.5,0.4,0.6,0.7
				c0.2,0.3,0.2,0.7,0.2,1.2c0,0.5-0.1,0.8-0.4,1.1c-0.3,0.2-0.7,0.4-1.2,0.6c-0.5,0.1-1.1,0.2-1.8,0.3c-0.7,0.1-1.3,0.2-2,0.3
				c-0.7,0.1-1.4,0.3-2,0.4c-0.7,0.2-1.3,0.5-1.8,0.8c-0.5,0.4-1,0.9-1.3,1.5c-0.3,0.6-0.5,1.4-0.5,2.3c0,0.9,0.1,1.6,0.4,2.2
				c0.3,0.6,0.7,1.1,1.2,1.5c0.5,0.4,1.1,0.7,1.8,0.9C139.2,92.1,140,92.1,140.7,92.1z M139.9,85.9c0.2-0.3,0.3-0.5,0.6-0.7
				c0.2-0.2,0.5-0.3,0.9-0.4c0.3-0.1,0.7-0.2,1-0.3c0.4-0.1,0.7-0.1,1.1-0.2c0.4,0,0.7-0.1,1-0.2c0.3-0.1,0.6-0.1,0.9-0.2
				c0.3-0.1,0.5-0.2,0.7-0.4v1.7c0,0.3,0,0.6-0.1,1c-0.1,0.4-0.2,0.9-0.4,1.3c-0.2,0.4-0.6,0.8-1.1,1.1c-0.5,0.3-1.2,0.5-2.1,0.5
				c-0.4,0-0.7,0-1.1-0.1c-0.3-0.1-0.6-0.2-0.9-0.3c-0.3-0.2-0.5-0.4-0.6-0.7c-0.2-0.3-0.2-0.6-0.2-1
				C139.7,86.6,139.7,86.2,139.9,85.9z"/>
		</g>
	</g>
	<g>
		<path fill="#454545" d="M60,182l-6.6-19.4h-4.1v22.2h2.6v-13.1c0-0.5,0-1.3,0-2.5c0-1.2,0-2,0-2.5v-1.7l6.8,19.8h2.8l6.7-19.8v1
			c0,1.2,0,2.4,0,3.4c0,1.1,0,1.8,0,2.3v13.1h2.6v-22.2h-4.1L60,182z"/>
		<path fill="#454545" d="M80.9,182.4l-4.5-13.7h-2.8l6,16.7l0,0.1c-0.1,0.4-0.4,0.9-0.7,1.7c-0.4,1-0.5,1.2-0.6,1.3
			c-0.2,0.3-0.4,0.5-0.7,0.7c-0.3,0.2-0.7,0.3-1.2,0.3c-0.2,0-0.4,0-0.6,0c-0.2,0-0.5-0.1-0.9-0.2v2.2c0.3,0.1,0.5,0.1,0.6,0.1
			c0.2,0,0.5,0,0.9,0c1.5,0,2.6-0.4,3.2-1.3c0.6-0.9,1.8-3.5,3.3-7.6c0.7-1.8,1.5-4,2.5-6.9c1.3-3.6,2.1-5.9,2.5-7h-2.7L80.9,182.4z
			"/>
		<path fill="#454545" d="M105.6,174.2c-0.8-0.6-1.9-1.1-3.4-1.4l-3.1-0.7c-2.1-0.5-3.4-0.9-4-1.2c-0.9-0.5-1.4-1.4-1.4-2.6
			c0-1,0.4-2,1.2-2.8c0.8-0.8,2.1-1.2,3.8-1.2c2.2,0,3.8,0.6,4.7,1.8c0.5,0.6,0.8,1.5,1,2.7h2.6c0-2.4-0.8-4.1-2.3-5.2
			c-1.6-1.1-3.5-1.7-5.8-1.7c-2.4,0-4.3,0.6-5.7,1.9c-1.3,1.3-2,2.9-2,4.9c0,1.8,0.7,3.2,2,4.1c0.8,0.5,2.1,1,4,1.5l3,0.7
			c1.6,0.4,2.8,0.8,3.6,1.4c0.8,0.6,1.2,1.5,1.2,2.8c0,1.7-0.9,2.9-2.7,3.6c-0.9,0.3-2,0.5-3.1,0.5c-2.5,0-4.3-0.8-5.3-2.3
			c-0.5-0.8-0.8-1.8-0.9-3h-2.5c0,2.3,0.8,4.1,2.2,5.5c1.5,1.4,3.6,2.1,6.3,2.1c2.3,0,4.3-0.5,6.1-1.6c1.7-1,2.6-2.8,2.6-5.2
			C107.6,176.7,106.9,175.2,105.6,174.2z"/>
		<path fill="#454545" d="M132.1,177.4c0.4-1.3,0.5-2.7,0.5-4.1c0-3.1-0.7-5.6-2.2-7.5c-1.9-2.5-4.8-3.8-8.7-3.8
			c-3.7,0-6.6,1.4-8.5,4.1c-1.5,2.1-2.2,4.7-2.2,7.7c0,3.3,0.9,6.1,2.6,8.3c1.9,2.2,4.7,3.4,8.1,3.4c1.1,0,2.2-0.1,3.2-0.4
			c1-0.3,1.9-0.6,2.7-1.1l0.1-0.1l3.4,2.6l1.3-1.6l-3.1-2.4l0.1-0.1C130.7,181.1,131.6,179.4,132.1,177.4z M127.4,180.8l-0.1,0.1
			l-2.9-2.3l-1.3,1.6l2.5,2l-0.2,0.1c-0.4,0.3-0.9,0.5-1.5,0.5c-0.6,0.1-1.2,0.1-1.8,0.1c-2.7,0-4.7-0.8-6.1-2.5
			c-1.4-1.6-2.1-3.8-2.1-6.6c0-3.2,0.7-5.7,2.2-7.3c1.4-1.6,3.4-2.4,5.9-2.4c2.4,0,4.4,0.8,5.8,2.5c1.4,1.6,2.1,3.8,2.1,6.5
			c0,1.2-0.2,2.5-0.5,3.8C129,178.5,128.4,179.7,127.4,180.8z"/>
		<polygon fill="#454545" points="139.4,162.6 136.6,162.6 136.6,184.8 150.7,184.8 150.7,182.4 139.4,182.4 		"/>
	</g>
</g>
</svg>
